<svg width="18" height="19" viewBox="0 0 18 19" fill="none" xmlns="http://www.w3.org/2000/svg">
<circle cx="9" cy="9.5" r="9" fill="#0071F5"/>
<path d="M8.77947 4.26533L3.92524 7.07405C3.85833 7.11278 3.80275 7.16849 3.76411 7.23558C3.72546 7.30266 3.70511 7.37876 3.70508 7.45623V11.5433C3.70504 11.6209 3.72537 11.6971 3.76401 11.7643C3.80266 11.8316 3.85826 11.8874 3.92524 11.9263L8.77865 14.735C8.84556 14.7738 8.9215 14.7943 8.99881 14.7943C9.07612 14.7943 9.15206 14.7738 9.21897 14.735L14.0732 11.9246C14.1401 11.8859 14.1957 11.8302 14.2343 11.7631C14.273 11.696 14.2933 11.6199 14.2934 11.5425V10.5228C14.2933 10.4454 14.2731 10.3694 14.2346 10.3023C14.1961 10.2352 14.1407 10.1795 14.074 10.1406L12.9691 9.49976L14.0724 8.86059C14.1394 8.82192 14.195 8.76623 14.2336 8.69913C14.2723 8.63203 14.2926 8.5559 14.2925 8.47841V7.45788C14.2926 7.38029 14.2723 7.30405 14.2336 7.23682C14.195 7.16959 14.1394 7.11374 14.0724 7.07487L9.2198 4.26533C9.15289 4.2265 9.07694 4.20605 8.99963 4.20605C8.92232 4.20605 8.84638 4.2265 8.77947 4.26533ZM12.9691 11.0318L9.00046 13.3307L5.02851 11.0318L8.99881 8.73622L9.8811 9.24689L11.2037 8.48088L8.99881 7.20172L5.02851 9.49976V7.96773L8.99881 5.66969L12.9683 7.96773L8.99881 10.2666L8.11652 9.7551L6.79309 10.5203L8.99881 11.7986L11.6457 10.2666L12.9691 11.0318Z" fill="#F9F9F9"/>
</svg>
