<svg width="30" height="30" viewBox="0 0 30 30" fill="none" xmlns="http://www.w3.org/2000/svg">
<path d="M3.3335 15.6833V14.3161C3.35043 14.2516 3.36337 14.1862 3.37223 14.1201C3.50257 12.2867 4.03122 10.5718 4.99417 9.01048C6.84626 6.00677 9.51182 4.16107 12.9899 3.5153C13.4279 3.43281 13.8741 3.39225 14.3166 3.33301H15.6838L16.4038 3.42142C18.857 3.72448 21.009 4.7002 22.8341 6.36224C24.8129 8.16465 26.0402 10.3932 26.4941 13.0373C26.5666 13.4607 26.6099 13.8895 26.6668 14.3161V15.6833C26.6499 15.7477 26.637 15.8132 26.6281 15.8792C26.4978 17.7126 25.9691 19.4275 25.0062 20.9889C23.1541 23.9926 20.4885 25.8383 17.0104 26.484C16.5724 26.5656 16.1263 26.6062 15.6838 26.6663H14.3166C14.2511 26.6492 14.1846 26.6363 14.1174 26.6276C12.2758 26.4954 10.5554 25.9627 8.98864 24.992C5.99632 23.1385 4.15837 20.4762 3.51579 17.0049C3.4333 16.5697 3.39274 16.1249 3.3335 15.6833ZM21.5317 6.49212C21.4743 6.44655 21.4405 6.41419 21.405 6.38776C19.8245 5.22337 18.0599 4.53978 16.1076 4.31693C15.7886 4.28047 15.6332 4.38437 15.4673 4.62227C14.4291 6.10794 13.7396 7.74948 13.2684 9.489C12.7835 11.2796 12.5748 13.1066 12.5684 14.9577C12.5684 15.4185 12.5684 15.8792 12.5684 16.3988H16.4157C16.3113 14.4259 16.7556 12.5706 17.7163 10.8389C18.6697 9.11758 19.9635 7.69889 21.5317 6.49212ZM22.3374 7.10508C21.5865 7.63134 20.8971 8.24021 20.2821 8.92025C18.6802 10.6835 17.586 12.6891 17.39 15.1086C17.3567 15.5188 17.3854 15.9353 17.3854 16.3605C18.6706 16.2465 19.9211 16.0547 21.1466 15.7225C22.6628 15.3123 24.1157 14.759 25.409 13.8394C25.5995 13.7027 25.6487 13.566 25.6123 13.3458C25.3261 11.625 24.6935 10.0468 23.6458 8.65182C23.2434 8.11452 22.779 7.62415 22.3374 7.10508ZM14.5121 4.29323C14.4054 4.29323 14.3298 4.28822 14.255 4.29323C11.6013 4.49785 9.3277 5.53919 7.42139 7.39219C7.31885 7.49154 7.33571 7.57174 7.37581 7.6916C7.58317 8.34102 7.81012 8.98633 7.97145 9.64714C8.42834 11.553 8.66128 13.5056 8.66553 15.4654C8.66553 15.6299 8.72477 15.6933 8.87288 15.7243C9.42842 15.8423 9.98122 15.9749 10.5381 16.0889C10.8913 16.1595 11.25 16.2023 11.6351 16.262C11.4787 11.9878 12.1797 7.95911 14.5121 4.29323ZM12.6855 17.3271C12.6813 17.3841 12.6813 17.4414 12.6855 17.4984C12.8336 18.4099 12.9466 19.3318 13.1412 20.2328C13.5427 22.0981 14.1994 23.8691 15.2175 25.496C15.3251 25.6678 15.439 25.7239 15.6391 25.7111C17.397 25.6085 19.102 25.0716 20.6015 24.1484C20.9729 23.9206 21.3229 23.659 21.6688 23.4225C21.014 23.0219 20.3645 22.6751 19.7703 22.2508C18.1265 21.0777 16.9639 19.5592 16.5556 17.5376C16.5259 17.39 16.4544 17.3872 16.3354 17.3868C15.3328 17.384 14.331 17.3771 13.3299 17.3658C13.1203 17.3695 12.9102 17.3439 12.6855 17.3289V17.3271ZM17.503 17.3193C17.5056 17.3702 17.5109 17.4208 17.519 17.4711C17.6878 18.2602 18.0197 19.0053 18.4933 19.6586C19.4845 21.0372 20.8235 21.9628 22.3707 22.6163C22.5024 22.6723 22.563 22.6163 22.6409 22.537C24.4506 20.6685 25.476 18.4382 25.6943 15.8446C25.7226 15.5087 25.6979 15.1678 25.6979 14.8183C23.1978 16.4042 20.4056 17.0309 17.503 17.3212V17.3193ZM8.66826 16.7005C8.54932 18.64 8.18701 20.5236 7.02764 22.1615C8.41077 23.988 12.1063 25.8073 14.1949 25.676C12.6873 23.0574 11.9796 20.21 11.7002 17.2674L8.66826 16.7005ZM7.69027 15.382C7.82425 13.8271 7.08825 9.26432 6.56917 8.37337C6.52816 8.42168 6.4876 8.46452 6.45159 8.51283C5.36957 9.93063 4.66195 11.5981 4.39398 13.3613C4.38031 13.4493 4.40081 13.5956 4.45869 13.6348C5.03382 14.013 5.60531 14.4013 6.20824 14.7317C6.67536 14.9869 7.18577 15.1642 7.69027 15.382ZM7.71488 16.381C6.49717 15.9781 5.34827 15.4668 4.27184 14.7144C4.23584 17.1999 4.92855 19.4025 6.38688 21.4022C7.36943 19.8404 7.6415 18.1442 7.71488 16.381Z" fill="#EE933E"/>
</svg>
