<svg width="22" height="17" viewBox="0 0 22 17" fill="none" xmlns="http://www.w3.org/2000/svg">
<path d="M18.6239 1.36776C17.2217 0.734683 15.7181 0.26826 14.1459 0.00112062C14.1173 -0.0040351 14.0887 0.00884931 14.0739 0.0346187C13.8805 0.373052 13.6663 0.814565 13.5163 1.16159C11.8254 0.912496 10.1431 0.912496 8.48679 1.16159C8.33676 0.806851 8.11478 0.373052 7.92053 0.0346187C7.90578 0.0097091 7.87718 -0.0031753 7.84855 0.00112062C6.27725 0.267407 4.7736 0.73383 3.37052 1.36776C3.35838 1.37291 3.34797 1.38151 3.34106 1.39267C0.488942 5.58535 -0.292371 9.67498 0.0909151 13.7139C0.0926494 13.7337 0.103922 13.7526 0.119532 13.7646C2.00127 15.1243 3.82406 15.9498 5.61301 16.497C5.64164 16.5056 5.67197 16.4953 5.69019 16.4721C6.11337 15.9035 6.49059 15.3039 6.81402 14.6734C6.83311 14.6365 6.81489 14.5926 6.77588 14.578C6.17754 14.3547 5.6078 14.0824 5.05975 13.7732C5.0164 13.7483 5.01293 13.6873 5.05281 13.6581C5.16814 13.573 5.2835 13.4845 5.39363 13.3952C5.41355 13.3789 5.44131 13.3755 5.46474 13.3858C9.06518 15.0032 12.9631 15.0032 16.521 13.3858C16.5445 13.3746 16.5722 13.378 16.593 13.3944C16.7032 13.4837 16.8185 13.573 16.9347 13.6581C16.9746 13.6873 16.972 13.7483 16.9286 13.7732C16.3806 14.0884 15.8108 14.3547 15.2116 14.5772C15.1726 14.5918 15.1553 14.6365 15.1744 14.6734C15.5047 15.303 15.882 15.9026 16.2973 16.4712C16.3147 16.4953 16.3459 16.5056 16.3745 16.497C18.1721 15.9498 19.9949 15.1243 21.8766 13.7646C21.8931 13.7526 21.9035 13.7345 21.9053 13.7148C22.364 9.04532 21.1369 4.98923 18.6525 1.39352C18.6465 1.38151 18.6361 1.37291 18.6239 1.36776ZM7.35169 11.2546C6.26771 11.2546 5.37454 10.2754 5.37454 9.07282C5.37454 7.87024 6.25039 6.89102 7.35169 6.89102C8.46163 6.89102 9.34616 7.87884 9.32881 9.07282C9.32881 10.2754 8.45296 11.2546 7.35169 11.2546ZM14.6619 11.2546C13.5779 11.2546 12.6847 10.2754 12.6847 9.07282C12.6847 7.87024 13.5606 6.89102 14.6619 6.89102C15.7718 6.89102 16.6563 7.87884 16.639 9.07282C16.639 10.2754 15.7718 11.2546 14.6619 11.2546Z" fill="#7289BB"/>
</svg>
