<svg width="94" height="96" viewBox="0 0 94 96" fill="none" xmlns="http://www.w3.org/2000/svg">
<g opacity="0.4">
<path d="M-5.32795e-05 23.5869C-5.32795e-05 43.7511 -5.32795e-05 63.9218 -5.32795e-05 84.0991C-0.0196554 85.6607 0.27305 87.2105 0.860909 88.6576C1.44877 90.1048 2.31995 91.4202 3.42341 92.5268C4.52686 93.6333 5.84038 94.5088 7.28698 95.1019C8.73359 95.6949 10.2842 95.9936 11.8479 95.9805C16.1856 95.9805 20.5331 95.9805 24.8806 95.9805H81.5156C88.0662 95.9805 92.5116 92.3819 93.8629 85.9864C93.8982 85.9056 93.9443 85.83 93.9999 85.7615V23.5869H-5.32795e-05ZM81.5645 88.1769C58.4366 88.1182 35.3087 88.1182 12.1808 88.1769C11.4135 88.2492 10.642 88.0939 9.96268 87.7304C9.2834 87.3668 8.72661 86.8112 8.36203 86.1331C8.01594 85.4791 7.83446 84.7508 7.83328 84.0111C7.83328 66.0765 7.83328 48.1484 7.83328 30.2268C7.83328 30.0215 7.83328 29.8063 7.83328 29.5423H86.1666V30.5789C86.1666 48.2397 86.1666 65.9004 86.1666 83.5612C86.2115 84.1772 86.1235 84.7956 85.9083 85.3746C85.6932 85.9537 85.3561 86.4798 84.9197 86.9174C84.4834 87.355 83.958 87.694 83.3792 87.9113C82.8003 88.1286 82.1815 88.2191 81.5645 88.1769Z" fill="#7289BB"/>
<path d="M94 12.4485V19.1764H0V12.4485C0.00102822 11.6887 0.152036 10.9367 0.444383 10.2353C0.73673 9.53387 1.16468 8.89692 1.70375 8.36087C2.25351 7.81884 2.90492 7.39041 3.62067 7.10011C4.33643 6.80982 5.10249 6.66336 5.875 6.66911H15.7646V14.238C15.7661 14.5735 15.8326 14.9056 15.9604 15.2159C16.0929 15.5253 16.2822 15.8072 16.5185 16.0471C16.7588 16.2877 17.0452 16.4772 17.3606 16.6045C17.6701 16.7362 18.0034 16.8028 18.3398 16.8001H23.7742C24.1105 16.8028 24.4439 16.7362 24.7533 16.6045C25.067 16.4793 25.3506 16.2894 25.5856 16.0471C25.8281 15.8103 26.0211 15.5278 26.1535 15.2159C26.2782 14.905 26.3414 14.5729 26.3396 14.238V6.66911H67.6898V14.238C67.6924 14.9184 67.9648 15.5701 68.4475 16.0503C68.9302 16.5305 69.5837 16.8001 70.265 16.8001H75.6994C76.0409 16.8053 76.3802 16.743 76.6976 16.617C77.015 16.4909 77.3044 16.3034 77.5491 16.0654C77.7939 15.8273 77.9891 15.5434 78.1237 15.2298C78.2583 14.9162 78.3295 14.5792 78.3333 14.238V6.66911H88.2229C89.7662 6.67042 91.2469 7.27811 92.3452 8.36087C93.416 9.45148 94.0109 10.9211 94 12.4485Z" fill="#7289BB"/>
<path d="M22.785 0H19.2404C18.9807 0 18.7317 0.103028 18.548 0.286419C18.3644 0.46981 18.2612 0.718542 18.2612 0.977895V13.3092C18.2612 13.5685 18.3644 13.8172 18.548 14.0006C18.7317 14.184 18.9807 14.2871 19.2404 14.2871H22.785C23.0447 14.2871 23.2937 14.184 23.4774 14.0006C23.661 13.8172 23.7641 13.5685 23.7641 13.3092V0.977895C23.7641 0.718542 23.661 0.46981 23.4774 0.286419C23.2937 0.103028 23.0447 0 22.785 0V0Z" fill="#7289BB"/>
<path d="M74.7596 0H71.215C70.9553 0 70.7063 0.103028 70.5226 0.286419C70.339 0.46981 70.2358 0.718542 70.2358 0.977895V13.3092C70.2358 13.5685 70.339 13.8172 70.5226 14.0006C70.7063 14.184 70.9553 14.2871 71.215 14.2871H74.7596C75.0193 14.2871 75.2683 14.184 75.452 14.0006C75.6356 13.8172 75.7387 13.5685 75.7387 13.3092V0.977895C75.7387 0.718542 75.6356 0.46981 75.452 0.286419C75.2683 0.103028 75.0193 0 74.7596 0V0Z" fill="#7289BB"/>
<path d="M57.6531 43.3599L46.9998 53.9994L36.3465 43.3599L30.5498 49.1588L41.2031 59.7983L30.5498 70.4378L36.3465 76.2269L46.9998 65.5874L57.6531 76.2269L63.4596 70.4378L52.8063 59.7983L63.4596 49.1588L57.6531 43.3599Z" fill="#7289BB"/>
</g>
</svg>
