<svg width="16" height="16" viewBox="0 0 16 16" fill="none" xmlns="http://www.w3.org/2000/svg">
<path fill-rule="evenodd" clip-rule="evenodd" d="M10.6667 6.66732H5.33333C4.03856 6.66732 3.20161 6.67015 2.58494 6.75306C2.00662 6.83081 1.82536 6.95634 1.72386 7.05784C1.62236 7.15934 1.49683 7.3406 1.41907 7.91892C1.33616 8.5356 1.33333 9.37255 1.33333 10.6673C1.33333 11.9621 1.33616 12.799 1.41907 13.4157C1.49683 13.994 1.62236 14.1753 1.72386 14.2768C1.82536 14.3783 2.00662 14.5038 2.58494 14.5816C3.20161 14.6645 4.03856 14.6673 5.33333 14.6673H10.6667C11.9614 14.6673 12.7984 14.6645 13.4151 14.5816C13.9934 14.5038 14.1746 14.3783 14.2761 14.2768C14.3776 14.1753 14.5032 13.994 14.5809 13.4157C14.6638 12.799 14.6667 11.9621 14.6667 10.6673C14.6667 9.37255 14.6638 8.5356 14.5809 7.91892C14.5032 7.3406 14.3776 7.15934 14.2761 7.05784C14.1746 6.95634 13.9934 6.83081 13.4151 6.75306C12.7984 6.67015 11.9614 6.66732 10.6667 6.66732ZM0.781049 6.11503C0 6.89608 0 8.15316 0 10.6673C0 13.1815 0 14.4386 0.781049 15.2196C1.5621 16.0007 2.81918 16.0007 5.33333 16.0007H10.6667C13.1808 16.0007 14.4379 16.0007 15.219 15.2196C16 14.4386 16 13.1815 16 10.6673C16 8.15316 16 6.89608 15.219 6.11503C14.4379 5.33398 13.1808 5.33398 10.6667 5.33398H5.33333C2.81918 5.33398 1.5621 5.33398 0.781049 6.11503Z" fill="#39455C"/>
<path fill-rule="evenodd" clip-rule="evenodd" d="M10.6667 5.33333V4C10.6667 3.3605 10.6659 2.94765 10.6444 2.63168C10.6236 2.32768 10.5882 2.21191 10.5652 2.15642C10.4298 1.82972 10.1703 1.57015 9.84358 1.43483C9.78809 1.41184 9.67232 1.37636 9.36832 1.35561C9.05235 1.33406 8.6395 1.33333 8 1.33333C7.3605 1.33333 6.94765 1.33406 6.63168 1.35561C6.32768 1.37636 6.21191 1.41184 6.15642 1.43483C5.82972 1.57015 5.57015 1.82972 5.43483 2.15642C5.41184 2.21191 5.37636 2.32768 5.35561 2.63168C5.33406 2.94765 5.33333 3.3605 5.33333 4V5.33333H10.6667ZM4.20299 1.64618C4 2.13623 4 2.75749 4 4V6.66667H12V4C12 2.75749 12 2.13623 11.797 1.64618C11.5264 0.992769 11.0072 0.473638 10.3538 0.202988C9.86377 0 9.24251 0 8 0C6.75749 0 6.13623 0 5.64618 0.202988C4.99277 0.473638 4.47364 0.992769 4.20299 1.64618Z" fill="#39455C"/>
<rect x="7" y="8.66602" width="2" height="4" rx="1" fill="#39455C"/>
</svg>
