<svg width="10" height="11" viewBox="0 0 10 11" fill="none" xmlns="http://www.w3.org/2000/svg">
<path fill-rule="evenodd" clip-rule="evenodd" d="M9.21053 0.5H0.789474C0.353459 0.5 0 0.853459 0 1.28947C0 1.72549 0.353459 2.07895 0.789474 2.07895H7.30457L0.231232 9.15228C-0.0770772 9.46059 -0.0770772 9.96046 0.231232 10.2688C0.53954 10.5771 1.03941 10.5771 1.34772 10.2688L8.42105 3.19543V9.71053C8.42105 10.1465 8.77451 10.5 9.21053 10.5C9.64654 10.5 10 10.1465 10 9.71053V1.28947C10 1.08743 9.92292 0.885386 9.76877 0.731232C9.69308 0.655539 9.60584 0.59843 9.51272 0.559904C9.41964 0.521304 9.31757 0.5 9.21053 0.5Z" fill="#7289BB"/>
</svg>
