<svg width="30" height="30" viewBox="0 0 30 30" fill="none" xmlns="http://www.w3.org/2000/svg">
<path d="M14.9885 26.6663C8.55106 26.6521 3.3193 21.4123 3.33353 14.9909C3.34775 8.55057 8.58663 3.31881 15.0061 3.33304C21.445 3.34727 26.6744 8.58756 26.6611 15.0084C26.6469 21.4488 21.4085 26.681 14.9885 26.6663ZM15.0161 19.2327C15.8542 19.2327 16.6918 19.229 17.53 19.2365C17.6822 19.2365 17.7491 19.1891 17.796 19.0468C18.3112 17.4389 18.831 15.8325 19.3556 14.2277C19.3993 14.0944 19.3789 14.0204 19.2608 13.9355C17.8909 12.9448 16.5246 11.9488 15.1617 10.9473C15.0426 10.86 14.9681 10.8667 14.8543 10.9502C13.4971 11.9453 12.1374 12.9365 10.7751 13.9237C10.6547 14.011 10.6215 14.0826 10.6708 14.2329C11.1954 15.8301 11.7134 17.4289 12.2247 19.0293C12.2721 19.1844 12.338 19.2384 12.5031 19.2365C13.3417 19.228 14.1784 19.2327 15.0161 19.2327ZM15.4961 8.39926C15.4961 8.85793 15.5003 9.3166 15.4932 9.77479C15.487 9.84049 15.4989 9.90665 15.5276 9.96609C15.5562 10.0255 15.6006 10.076 15.6559 10.112C17.0966 11.1555 18.5338 12.2027 19.9675 13.2535C20.0837 13.3388 20.1738 13.3569 20.3062 13.2843C21.0119 12.8963 21.7248 12.5216 22.4302 12.1322C22.4708 12.1081 22.5059 12.0758 22.5334 12.0374C22.5609 11.9991 22.5802 11.9554 22.59 11.9092C22.7165 10.6033 22.8337 9.29652 22.9415 7.98897C22.9392 7.8978 22.9034 7.81067 22.8409 7.74422C21.893 6.70976 20.7465 5.87661 19.4699 5.29435C19.3587 5.24584 19.2334 5.2406 19.1185 5.27965C17.9673 5.75966 16.8232 6.25485 15.6735 6.73866C15.5312 6.79795 15.4904 6.87811 15.4932 7.02325C15.5008 7.48192 15.4961 7.94059 15.4961 8.39926ZM14.5237 8.41349C14.5237 7.94676 14.5171 7.48003 14.5275 7.01377C14.5308 6.86198 14.4777 6.79463 14.3411 6.73724C13.1994 6.2558 12.061 5.76203 10.9184 5.28582C10.7897 5.24049 10.6488 5.24438 10.5228 5.29673C9.29819 5.85871 8.19095 6.6473 7.25948 7.6209C7.1897 7.68742 7.137 7.76981 7.10587 7.86106C7.07474 7.95231 7.06609 8.04972 7.08066 8.14502C7.19671 9.37257 7.30565 10.6009 7.40747 11.83C7.42027 11.9823 7.47198 12.0672 7.61237 12.1364C8.35358 12.49 9.09147 12.8501 9.82603 13.2169C9.94888 13.2786 10.0319 13.2715 10.1415 13.1909C11.5502 12.1578 12.9616 11.1287 14.3757 10.1035C14.4938 10.0181 14.5294 9.92847 14.527 9.78949C14.5185 9.33083 14.5237 8.87216 14.5237 8.41349ZM7.11007 12.9703C7.09306 12.9793 7.07714 12.9903 7.06264 13.003C6.19083 14.0038 5.32125 15.0061 4.45387 16.0097C4.40284 16.0763 4.37848 16.1595 4.38557 16.2431C4.54342 17.6268 4.9754 18.9651 5.65628 20.18C5.71309 20.2783 5.80436 20.3519 5.91241 20.3868C7.17078 20.6861 8.43295 20.9707 9.69275 21.2652C9.82413 21.296 9.90761 21.2757 9.99868 21.1704C10.4256 20.6827 10.8638 20.2056 11.2893 19.717C11.3156 19.6829 11.3343 19.6435 11.344 19.6015C11.3538 19.5595 11.3544 19.5159 11.3458 19.4737C10.7984 17.7605 10.245 16.0493 9.68563 14.3401C9.66324 14.2666 9.61529 14.2035 9.55045 14.1623C8.73604 13.761 7.91973 13.3654 7.11007 12.9703ZM22.9348 12.9703C22.0749 13.4332 21.2401 13.8796 20.41 14.3349C20.345 14.3705 20.2967 14.4635 20.272 14.5398C19.7422 16.1682 19.2195 17.7984 18.6868 19.4253C18.6394 19.57 18.6697 19.6568 18.7646 19.7607C19.1801 20.216 19.5956 20.6718 19.9978 21.1395C20.115 21.2761 20.2236 21.2941 20.3854 21.2557C21.5835 20.9711 22.7821 20.6922 23.9831 20.4223C24.1676 20.3811 24.2881 20.3071 24.3791 20.1378C25.0357 18.9269 25.4543 17.6015 25.6124 16.2331C25.6168 16.1349 25.5859 16.0383 25.5251 15.9609C25.2913 15.6725 25.0427 15.396 24.7994 15.1152L22.9348 12.9703ZM15.0137 20.2136C14.1286 20.2136 13.243 20.2089 12.3575 20.2198C12.2374 20.2254 12.1236 20.2746 12.0373 20.3583C11.6052 20.8198 11.193 21.3003 10.7633 21.7642C10.6599 21.8757 10.6684 21.9539 10.741 22.0697C11.3889 23.1454 12.0288 24.2264 12.6805 25.2998C12.744 25.3936 12.8402 25.4603 12.9504 25.4867C14.3103 25.7591 15.7108 25.7583 17.0703 25.4843C17.181 25.4593 17.2783 25.3938 17.3431 25.3007C17.9986 24.2202 18.6413 23.1317 19.294 22.0497C19.3656 21.9312 19.3528 21.8624 19.2636 21.7652C18.8415 21.3035 18.4247 20.8377 18.0133 20.3678C17.9692 20.3139 17.9128 20.2713 17.8488 20.2438C17.7848 20.2163 17.7151 20.2047 17.6457 20.2099C16.7682 20.2155 15.8907 20.2127 15.0127 20.2127L15.0137 20.2136ZM4.36802 14.6129C4.44059 14.5313 4.51364 14.4506 4.58526 14.3686C5.16488 13.6998 5.74877 13.0353 6.3189 12.3584C6.40402 12.2527 6.44919 12.1204 6.44649 11.9847C6.39242 11.2125 6.31748 10.4422 6.24823 9.67139C6.22925 9.45842 6.20459 9.2445 6.18277 9.03343C5.00551 10.7139 4.40407 12.5666 4.36802 14.6129ZM6.57551 21.5427C7.3681 22.8362 10.1609 24.8558 11.3752 25.0218C10.8397 24.1263 10.3103 23.2384 9.77528 22.3543C9.73366 22.2996 9.67368 22.2619 9.60642 22.248C8.6094 22.0127 7.61143 21.7841 6.57551 21.5427ZM18.6565 25.0095C19.94 24.7828 22.7755 22.7152 23.4054 21.547C22.3936 21.7808 21.3961 22.009 20.4015 22.2475C20.3247 22.266 20.2469 22.3486 20.2023 22.4216C19.8608 22.9804 19.5268 23.5439 19.1915 24.1064C19.0151 24.4052 18.8405 24.7012 18.6565 25.0095ZM25.6266 14.583C25.5858 12.5576 24.9929 10.7163 23.8365 8.98599C23.7417 10.0651 23.6468 11.073 23.5633 12.0795C23.5627 12.1559 23.5895 12.2299 23.6387 12.2882C24.2971 13.056 24.9597 13.8209 25.6266 14.583ZM17.9426 4.71711C15.9604 4.18302 14.047 4.17828 12.1146 4.70335C12.1455 4.73086 12.1549 4.74509 12.1687 4.75078C13.0799 5.14257 13.9925 5.53578 14.907 5.92283C14.9718 5.947 15.0432 5.947 15.1081 5.92283C16.0311 5.53578 16.9508 5.14067 17.9426 4.71711Z" fill="#E15252"/>
</svg>
