<svg width="30" height="30" viewBox="0 0 30 30" fill="none" xmlns="http://www.w3.org/2000/svg">
<path d="M20.1382 3.33301C21.55 3.35673 22.5969 3.46157 23.615 3.80217C24.9636 4.25331 25.8246 5.15986 26.2435 6.50616C26.6624 7.85246 26.7412 9.24431 26.5979 10.6371C26.1311 15.1869 24.2525 19.0555 20.8612 22.1362C18.3204 24.4445 15.3175 25.8549 11.9337 26.4459C10.6486 26.6703 9.35783 26.7377 8.06086 26.5811C7.22357 26.4829 6.41712 26.279 5.66143 25.8904C4.65431 25.3724 4.08268 24.5124 3.75108 23.4635C3.33173 22.1352 3.25915 20.7723 3.39719 19.4037C3.85782 14.8349 5.74539 10.9535 9.14957 7.86195C11.6908 5.5536 14.6956 4.13946 18.0822 3.5702C18.8749 3.43453 19.6818 3.38377 20.1382 3.33301ZM5.16 24.2021C5.23923 24.1072 5.28904 24.0328 5.34976 23.9716C6.62364 22.6955 7.89815 21.4202 9.17329 20.1457C9.21686 20.0989 9.26278 20.0544 9.31086 20.0123C9.52054 19.8425 9.8047 19.8397 9.98354 20.0029C10.1624 20.166 10.1733 20.4478 10.0111 20.6703C9.96198 20.7324 9.90822 20.7906 9.85024 20.8444C8.57351 22.1196 7.29821 23.3947 6.02433 24.6699C5.96551 24.7287 5.90906 24.7908 5.8213 24.8838C6.11209 25.0171 6.36873 25.1575 6.64103 25.2557C8.012 25.751 9.43136 25.7643 10.8555 25.6186C12.549 25.4455 14.1724 24.9882 15.7288 24.3013C18.3778 23.1319 20.6083 21.4236 22.3389 19.0925C24.3038 16.4455 25.4285 13.4768 25.6596 10.1812C25.7288 9.18501 25.6766 8.1888 25.4352 7.21394C25.3161 6.73102 25.1505 6.26518 24.836 5.79933C24.7816 5.87999 24.7223 5.95729 24.6586 6.03083C23.3847 7.30692 22.1102 8.58238 20.8351 9.85721C20.5305 10.1618 20.226 10.2187 20.0125 9.99953C19.8441 9.82638 19.7805 9.52799 20.1401 9.17267C21.4281 7.8999 22.7018 6.6148 23.9826 5.33348C24.0405 5.27561 24.0941 5.21299 24.1634 5.13804C24.0319 5.06451 23.9262 4.99572 23.8128 4.94212C22.9731 4.52893 22.0718 4.37997 21.1524 4.33301C19.7051 4.25948 18.28 4.43595 16.883 4.80739C13.3649 5.74146 10.3649 7.52893 8.08932 10.3866C5.38913 13.777 3.99539 17.6181 4.42139 22.009C4.49049 22.7882 4.74364 23.5399 5.16 24.2021Z" fill="#FF6109"/>
<path d="M18.1063 12.5663C18.7107 13.1702 19.2946 13.738 19.8554 14.3272C19.9789 14.4637 20.0535 14.6374 20.0674 14.821C20.0807 15.1246 19.7059 15.3305 19.4322 15.1934C19.3279 15.1381 19.2328 15.0669 19.1504 14.9823C18.6329 14.4709 18.1205 13.9548 17.6054 13.4406C17.5508 13.386 17.4925 13.3348 17.4526 13.2982L15.7202 15.0288C15.7576 15.0686 15.815 15.1317 15.8729 15.1915C16.4037 15.7233 16.9374 16.2518 17.4649 16.7869C17.7667 17.0924 17.7083 17.4984 17.3473 17.6351C17.1058 17.7261 16.9204 17.6123 16.7553 17.4481L15.1784 15.8713C15.1234 15.8167 15.0655 15.765 15.0252 15.729L13.2946 17.4581C13.3297 17.4961 13.3843 17.5596 13.4436 17.6189C13.974 18.1507 14.5081 18.6787 15.0351 19.2138C15.3321 19.5155 15.2856 19.9083 14.9403 20.053C14.6941 20.1559 14.4986 20.053 14.3236 19.8775C13.7989 19.3512 13.2734 18.8256 12.7472 18.3006C12.6917 18.2456 12.6338 18.1934 12.5574 18.1213C12.2012 18.4809 11.8563 18.8376 11.5015 19.1839C11.204 19.4742 10.8146 19.4111 10.6694 19.0582C10.5688 18.8139 10.6874 18.6313 10.8497 18.4662C11.1874 18.1246 11.5285 17.7864 11.8833 17.4315C11.288 16.8376 10.7002 16.2641 10.131 15.6725C10.015 15.5487 9.94294 15.3902 9.92603 15.2214C9.90611 14.876 10.2927 14.6607 10.5949 14.8295C10.6964 14.8902 10.7892 14.9643 10.871 15.0497C11.4313 15.6071 11.9877 16.1683 12.5266 16.71L14.2747 14.9614C13.9972 14.6858 13.695 14.3869 13.3933 14.0867C13.1248 13.8191 12.856 13.5503 12.5869 13.2802C12.297 12.9894 12.2548 12.691 12.4749 12.4738C12.695 12.2565 12.9872 12.3072 13.2814 12.6009C13.7905 13.1088 14.2991 13.6178 14.807 14.1279C14.8536 14.1783 14.8976 14.231 14.9388 14.2859L16.6983 12.5259C16.4137 12.2442 16.1006 11.9344 15.7885 11.6246C15.5038 11.34 15.213 11.0587 14.9346 10.7674C14.779 10.6037 14.7002 10.4097 14.8127 10.1844C14.9175 9.97423 15.0973 9.87556 15.3188 9.92964C15.4605 9.97301 15.5888 10.0517 15.6917 10.1583C16.2671 10.7223 16.8331 11.2968 17.4351 11.8998C17.6566 11.6706 17.8672 11.451 18.0797 11.2328C18.196 11.1137 18.3141 10.9956 18.4317 10.8803C18.7164 10.599 18.9967 10.5629 19.2192 10.7793C19.4417 10.9956 19.4014 11.2835 19.1186 11.5658C18.7908 11.895 18.4574 12.2204 18.1063 12.5663Z" fill="#FF6109"/>
</svg>
