<svg width="30" height="30" viewBox="0 0 30 30" fill="none" xmlns="http://www.w3.org/2000/svg">
<path d="M26.6707 9.67023C26.6285 10.0179 26.5964 10.3664 26.5431 10.7117C26.3948 11.6761 26.0494 12.5748 25.5627 13.4115C24.1979 15.7572 22.3169 17.6009 19.9818 18.968C18.5256 19.8203 16.9532 20.2998 15.239 20.241C13.8907 20.1951 12.5686 20.3691 11.2924 20.8297C10.8419 20.9927 10.4199 21.2044 10.0884 21.5589C10.059 21.5939 10.0371 21.6345 10.0242 21.6783C10.0112 21.7221 10.0074 21.768 10.013 21.8134C10.1118 22.262 10.013 22.6496 9.68838 22.9729C8.56421 24.1001 7.43836 25.2257 6.31082 26.3495C5.99166 26.6682 5.60546 26.7169 5.18436 26.625C4.19979 26.4106 3.32682 25.3852 3.3337 24.458C3.33088 24.3161 3.35689 24.175 3.41017 24.0434C3.46345 23.9119 3.54289 23.7925 3.64368 23.6925C4.77427 22.5597 5.9061 21.4293 7.03914 20.3011C7.356 19.9861 7.73991 19.8906 8.1803 19.9843C8.22893 19.9899 8.2782 19.9854 8.32499 19.971C8.37178 19.9566 8.41508 19.9327 8.45216 19.9007C8.79795 19.5728 9.01057 19.1591 9.17084 18.7159C9.64659 17.4035 9.8018 16.0479 9.77425 14.6573C9.76323 14.0953 9.84405 13.5304 9.90513 12.9693C9.93681 12.679 10.1742 12.5013 10.4254 12.5302C10.6766 12.5592 10.8479 12.7814 10.8245 13.0813C10.7988 13.4161 10.7363 13.7486 10.7152 14.0833C10.6422 15.2419 10.8989 16.3183 11.5762 17.2717C12.4125 18.4477 13.5605 19.1072 14.9919 19.2679C16.3429 19.4185 17.6159 19.1081 18.8108 18.5152C21.3456 17.257 23.3189 15.3756 24.7448 12.9385C25.4488 11.7349 25.8262 10.4289 25.6752 9.00941C25.441 6.80929 23.5981 4.80986 21.4187 4.39334C20.0034 4.1224 18.6849 4.43927 17.4235 5.06564C17.0616 5.24611 16.7209 5.46838 16.3673 5.6663C16.1836 5.77054 15.9898 5.79212 15.8102 5.65344C15.6403 5.5221 15.5769 5.3375 15.6596 5.14463C15.7176 5.0217 15.8089 4.9175 15.9232 4.84384C17.1727 4.03378 18.51 3.46251 20.0185 3.36929C20.0628 3.36175 20.1062 3.34959 20.148 3.33301H20.5154C20.5671 3.34515 20.6196 3.35374 20.6724 3.35872C23.5719 3.44322 26.1068 5.83208 26.5504 8.51713C26.6009 8.82343 26.6322 9.13294 26.6726 9.44108L26.6707 9.67023ZM5.53796 25.7342C5.59727 25.7039 5.65302 25.667 5.70419 25.6244C6.79928 24.5339 7.89252 23.4416 8.98393 22.3474C9.1566 22.1748 9.15476 22.0719 8.98393 21.8988C8.69463 21.6033 8.40256 21.3111 8.10774 21.0221C7.92406 20.843 7.82532 20.8416 7.6421 21.0244C6.55528 22.1106 5.47122 23.1996 4.38991 24.2913C4.35315 24.3354 4.32646 24.3871 4.31171 24.4426C4.29696 24.4981 4.29449 24.5562 4.30449 24.6128C4.4542 25.1725 4.82617 25.5312 5.37677 25.7029C5.42988 25.7163 5.48369 25.7267 5.53796 25.7342ZM10.5159 17.4085C10.2335 18.5827 9.96896 19.7473 9.0643 20.6332L9.37381 20.9284C10.256 20.0334 11.421 19.768 12.6044 19.4929C12.4207 19.3405 12.2696 19.2339 12.0226 19.3115C11.7259 19.4034 11.4127 19.4493 11.1041 19.509C10.6697 19.5949 10.4071 19.3317 10.4911 18.8946C10.5526 18.5731 10.6045 18.2471 10.6899 17.9302C10.751 17.7121 10.6619 17.5688 10.5159 17.4085Z" fill="#4FD86D"/>
<path d="M11.6145 12.2715C9.28124 12.2674 7.37594 10.3579 7.38283 8.02969C7.38972 5.70145 9.31614 3.78283 11.6315 3.80488C12.7505 3.8113 13.8215 4.25977 14.6112 5.05254C15.4008 5.8453 15.8451 6.91808 15.8472 8.03704C15.8495 10.3694 13.9455 12.2752 11.6145 12.2715ZM14.7372 9.08222C12.657 8.37043 11.2784 6.98634 10.5758 4.93318C9.66561 5.16279 8.66956 6.17307 8.5171 7.00425C10.5758 7.70732 11.9534 9.08681 12.6602 11.1611C13.6806 10.7882 14.3694 10.1026 14.7386 9.08222H14.7372ZM11.6779 11.3154C11.4212 9.97219 9.61464 8.16745 8.35454 7.98652C8.20988 9.54006 9.63576 11.3829 11.6793 11.3154H11.6779ZM11.5631 4.77658C11.8386 6.17996 13.6553 7.908 14.897 8.08296C14.9563 6.0353 13.1107 4.63331 11.5631 4.77658Z" fill="#4FD86D"/>
<path d="M11.7026 14.301C11.7486 13.9795 11.7853 13.608 11.8519 13.2407C11.9065 12.9394 12.1476 12.7782 12.4144 12.8274C12.6725 12.877 12.825 13.1226 12.768 13.4285C12.6514 14.0585 12.5981 14.6858 12.7859 15.3113C13.1469 16.5195 14.1755 17.3038 15.4379 17.3318C16.4698 17.3566 17.4213 17.0563 18.3067 16.5645C20.3309 15.4412 21.9542 13.8955 23.0789 11.8593C23.5216 11.0575 23.7677 10.1947 23.6883 9.26199C23.5408 7.51007 21.9336 6.15675 20.1757 6.29773C19.0878 6.38452 18.1492 6.84098 17.2624 7.43567C17.1481 7.51236 17.0406 7.5987 16.9253 7.67401C16.6695 7.84116 16.3835 7.80534 16.2287 7.59135C16.0739 7.37735 16.1327 7.09539 16.3825 6.91584C16.6673 6.70965 16.9575 6.50897 17.2596 6.33033C18.2341 5.75309 19.2669 5.35449 20.42 5.35449C21.3807 5.35697 22.3122 5.68536 23.062 6.28597C23.8119 6.88659 24.3357 7.72386 24.5479 8.66087C24.7812 9.70835 24.5998 10.7131 24.2003 11.688C23.6781 12.9624 22.8511 14.0301 21.8964 15.0018C20.8402 16.08 19.6632 17.0017 18.2805 17.634C17.3515 18.0588 16.3858 18.3063 15.3511 18.2742C14.4787 18.251 13.6424 17.9209 12.9894 17.3418C12.3365 16.7626 11.9088 15.9717 11.7816 15.1083C11.7463 14.8603 11.732 14.6073 11.7026 14.301Z" fill="#4FD86D"/>
</svg>
