<svg width="20" height="16" viewBox="0 0 20 16" fill="none" xmlns="http://www.w3.org/2000/svg">
<rect width="20" height="16" rx="2" fill="#F9F9F9"/>
<mask id="mask0_13641_17475" style="mask-type:luminance" maskUnits="userSpaceOnUse" x="0" y="0" width="20" height="16">
<rect width="20" height="16" rx="2" fill="white"/>
</mask>
<g mask="url(#mask0_13641_17475)">
<path fill-rule="evenodd" clip-rule="evenodd" d="M20 0H0V1.06667H20V0ZM20 2.13379H0V3.20046H20V2.13379ZM0 4.26667H20V5.33333H0V4.26667ZM20 6.40039H0V7.46706H20V6.40039ZM0 8.53333H20V9.6H0V8.53333ZM20 10.667H0V11.7337H20V10.667ZM0 12.8H20V13.8667H0V12.8ZM20 14.9336H0V16.0003H20V14.9336Z" fill="#D02F44"/>
<rect width="8.57143" height="7.46667" fill="#46467F"/>
<g filter="url(#filter0_d_13641_17475)">
<path fill-rule="evenodd" clip-rule="evenodd" d="M1.90551 1.59974C1.90551 1.89429 1.69231 2.13307 1.42932 2.13307C1.16632 2.13307 0.953125 1.89429 0.953125 1.59974C0.953125 1.30519 1.16632 1.06641 1.42932 1.06641C1.69231 1.06641 1.90551 1.30519 1.90551 1.59974ZM3.8098 1.59974C3.8098 1.89429 3.5966 2.13307 3.33361 2.13307C3.07062 2.13307 2.85742 1.89429 2.85742 1.59974C2.85742 1.30519 3.07062 1.06641 3.33361 1.06641C3.5966 1.06641 3.8098 1.30519 3.8098 1.59974ZM5.23791 2.13307C5.5009 2.13307 5.7141 1.89429 5.7141 1.59974C5.7141 1.30519 5.5009 1.06641 5.23791 1.06641C4.97492 1.06641 4.76172 1.30519 4.76172 1.59974C4.76172 1.89429 4.97492 2.13307 5.23791 2.13307ZM7.62035 1.59974C7.62035 1.89429 7.40715 2.13307 7.14416 2.13307C6.88117 2.13307 6.66797 1.89429 6.66797 1.59974C6.66797 1.30519 6.88117 1.06641 7.14416 1.06641C7.40715 1.06641 7.62035 1.30519 7.62035 1.59974ZM2.38244 3.19948C2.64543 3.19948 2.85863 2.9607 2.85863 2.66615C2.85863 2.37159 2.64543 2.13281 2.38244 2.13281C2.11945 2.13281 1.90625 2.37159 1.90625 2.66615C1.90625 2.9607 2.11945 3.19948 2.38244 3.19948ZM4.76293 2.66615C4.76293 2.9607 4.54973 3.19948 4.28674 3.19948C4.02374 3.19948 3.81055 2.9607 3.81055 2.66615C3.81055 2.37159 4.02374 2.13281 4.28674 2.13281C4.54973 2.13281 4.76293 2.37159 4.76293 2.66615ZM6.19103 3.19948C6.45403 3.19948 6.66722 2.9607 6.66722 2.66615C6.66722 2.37159 6.45403 2.13281 6.19103 2.13281C5.92804 2.13281 5.71484 2.37159 5.71484 2.66615C5.71484 2.9607 5.92804 3.19948 6.19103 3.19948ZM7.62035 3.73353C7.62035 4.02808 7.40715 4.26686 7.14416 4.26686C6.88117 4.26686 6.66797 4.02808 6.66797 3.73353C6.66797 3.43898 6.88117 3.2002 7.14416 3.2002C7.40715 3.2002 7.62035 3.43898 7.62035 3.73353ZM5.23791 4.26686C5.5009 4.26686 5.7141 4.02808 5.7141 3.73353C5.7141 3.43898 5.5009 3.2002 5.23791 3.2002C4.97492 3.2002 4.76172 3.43898 4.76172 3.73353C4.76172 4.02808 4.97492 4.26686 5.23791 4.26686ZM3.8098 3.73353C3.8098 4.02808 3.5966 4.26686 3.33361 4.26686C3.07062 4.26686 2.85742 4.02808 2.85742 3.73353C2.85742 3.43898 3.07062 3.2002 3.33361 3.2002C3.5966 3.2002 3.8098 3.43898 3.8098 3.73353ZM1.42932 4.26686C1.69231 4.26686 1.90551 4.02808 1.90551 3.73353C1.90551 3.43898 1.69231 3.2002 1.42932 3.2002C1.16632 3.2002 0.953125 3.43898 0.953125 3.73353C0.953125 4.02808 1.16632 4.26686 1.42932 4.26686ZM2.85863 4.79993C2.85863 5.09449 2.64543 5.33327 2.38244 5.33327C2.11945 5.33327 1.90625 5.09449 1.90625 4.79993C1.90625 4.50538 2.11945 4.2666 2.38244 4.2666C2.64543 4.2666 2.85863 4.50538 2.85863 4.79993ZM4.28674 5.33327C4.54973 5.33327 4.76293 5.09449 4.76293 4.79993C4.76293 4.50538 4.54973 4.2666 4.28674 4.2666C4.02374 4.2666 3.81055 4.50538 3.81055 4.79993C3.81055 5.09449 4.02374 5.33327 4.28674 5.33327ZM6.66741 4.79974C6.66741 5.09429 6.45421 5.33307 6.19122 5.33307C5.92823 5.33307 5.71503 5.09429 5.71503 4.79974C5.71503 4.50519 5.92823 4.26641 6.19122 4.26641C6.45421 4.26641 6.66741 4.50519 6.66741 4.79974ZM7.14416 6.39967C7.40715 6.39967 7.62035 6.16089 7.62035 5.86634C7.62035 5.57179 7.40715 5.33301 7.14416 5.33301C6.88117 5.33301 6.66797 5.57179 6.66797 5.86634C6.66797 6.16089 6.88117 6.39967 7.14416 6.39967ZM5.7141 5.86634C5.7141 6.16089 5.5009 6.39967 5.23791 6.39967C4.97492 6.39967 4.76172 6.16089 4.76172 5.86634C4.76172 5.57179 4.97492 5.33301 5.23791 5.33301C5.5009 5.33301 5.7141 5.57179 5.7141 5.86634ZM3.33361 6.39967C3.5966 6.39967 3.8098 6.16089 3.8098 5.86634C3.8098 5.57179 3.5966 5.33301 3.33361 5.33301C3.07062 5.33301 2.85742 5.57179 2.85742 5.86634C2.85742 6.16089 3.07062 6.39967 3.33361 6.39967ZM1.90551 5.86641C1.90551 6.16096 1.69231 6.39974 1.42932 6.39974C1.16632 6.39974 0.953125 6.16096 0.953125 5.86641C0.953125 5.57186 1.16632 5.33307 1.42932 5.33307C1.69231 5.33307 1.90551 5.57186 1.90551 5.86641Z" fill="url(#paint0_linear_13641_17475)"/>
</g>
</g>
<defs>
<filter id="filter0_d_13641_17475" x="0.953125" y="1.06641" width="6.66699" height="6.3335" filterUnits="userSpaceOnUse" color-interpolation-filters="sRGB">
<feFlood flood-opacity="0" result="BackgroundImageFix"/>
<feColorMatrix in="SourceAlpha" type="matrix" values="0 0 0 0 0 0 0 0 0 0 0 0 0 0 0 0 0 0 127 0" result="hardAlpha"/>
<feOffset dy="1"/>
<feColorMatrix type="matrix" values="0 0 0 0 0 0 0 0 0 0 0 0 0 0 0 0 0 0 0.06 0"/>
<feBlend mode="normal" in2="BackgroundImageFix" result="effect1_dropShadow_13641_17475"/>
<feBlend mode="normal" in="SourceGraphic" in2="effect1_dropShadow_13641_17475" result="shape"/>
</filter>
<linearGradient id="paint0_linear_13641_17475" x1="0.953125" y1="1.06641" x2="0.953125" y2="6.39974" gradientUnits="userSpaceOnUse">
<stop stop-color="white"/>
<stop offset="1" stop-color="#F0F0F0"/>
</linearGradient>
</defs>
</svg>
