<svg width="30" height="30" viewBox="0 0 30 30" fill="none" xmlns="http://www.w3.org/2000/svg">
<path d="M26.6697 15.0536C26.6241 21.5842 21.3133 26.7072 14.9413 26.6661C8.39286 26.624 3.29017 21.2884 3.33377 14.9337C3.37886 8.42743 8.66734 3.29948 15.0483 3.33317C21.5927 3.36785 26.6989 8.69201 26.6697 15.0536ZM13.116 25.4849C14.8838 25.7862 16.5614 25.6752 18.2118 25.1559C18.289 25.1289 18.3593 25.0853 18.4179 25.0281C19.1788 24.3178 19.8663 23.5326 20.47 22.6846C21.7855 20.8277 22.6575 18.7785 23.1168 16.5524C23.1891 16.2021 23.2347 15.8459 23.2912 15.501C22.4152 15.2038 20.3021 14.9035 19.8076 14.9981C19.4712 17.1177 18.6983 19.0782 17.5459 20.8861C16.3935 22.694 14.9274 24.2161 13.116 25.4849ZM6.85398 8.1693C6.82359 8.1899 6.79493 8.21294 6.76826 8.23817C5.70864 9.52265 4.96791 11.0396 4.6066 12.6651C4.58651 12.7621 4.58804 12.8624 4.61105 12.9589C4.67794 13.2477 4.75028 13.5361 4.8355 13.82C5.72137 16.7758 7.34695 19.2546 9.64883 21.2959C9.89656 21.5178 10.1661 21.7205 10.4321 21.9375C11.2659 21.1137 11.9987 20.1936 12.6151 19.1966C9.19946 16.3007 7.32317 12.614 6.85398 8.1693ZM25.0025 11.363C24.9896 11.3135 24.9851 11.2822 24.9747 11.2545C24.3876 9.68698 23.4367 8.28129 22.2002 7.15313C22.1416 7.09541 22.0693 7.05348 21.9901 7.03124C21.024 6.82761 20.0643 6.55858 19.0872 6.44562C16.7437 6.1751 14.4468 6.45998 12.2123 7.221C11.8962 7.32852 11.5875 7.45634 11.2739 7.57525C11.5607 8.67095 11.9735 9.72971 12.5041 10.7303C16.7571 9.25534 20.9075 9.53626 25.0025 11.363ZM13.0125 11.584C13.0268 11.6285 13.0433 11.6724 13.062 11.7153C13.6362 12.6517 14.3085 13.5244 15.0676 14.3184C15.1295 14.3828 15.2737 14.4066 15.3703 14.3917C16.0709 14.2847 16.765 14.1296 17.4686 14.0518C20.148 13.7546 22.7521 14.0647 25.2586 15.0888C25.3785 15.1384 25.5014 15.181 25.6431 15.2345C25.6708 14.4457 25.5881 13.6951 25.4558 12.947C25.4471 12.8745 25.4196 12.8056 25.3762 12.747C25.3328 12.6883 25.2748 12.642 25.2081 12.6125C23.5692 11.7506 21.7915 11.1834 19.9563 10.9369C18.4672 10.7255 16.9541 10.7494 15.4724 11.0078C14.6499 11.1554 13.8414 11.3873 13.0135 11.584H13.0125ZM9.4893 24.114C9.62598 24.2041 9.76739 24.2868 9.91291 24.3617C10.453 24.6055 10.9994 24.8354 11.539 25.0792C11.7 25.152 11.8234 25.1287 11.97 25.0326C15.1598 22.9745 17.3304 20.1444 18.4298 16.5058C18.5784 16.0133 18.674 15.5045 18.7919 15.013C18.7345 14.9858 18.7196 14.9729 18.7052 14.9734C17.6334 15.0077 16.5681 15.1535 15.5264 15.4084C15.4541 15.4262 15.3778 15.5278 15.349 15.6066C15.2385 15.8989 15.1533 16.2011 15.0463 16.4949C14.1545 18.9444 12.8009 21.0967 10.9013 22.8917C10.4544 23.3134 9.97286 23.6988 9.49029 24.114H9.4893ZM9.82571 5.64447C9.33372 5.99128 8.85016 6.34504 8.34827 6.67253C7.93605 6.94157 7.80327 7.25965 7.84241 7.77789C8.10599 11.1262 9.28567 14.0915 11.4676 16.6465C11.969 17.2326 12.5428 17.7563 13.0912 18.3167C13.1221 18.2855 13.1508 18.2524 13.1775 18.2176C13.6795 17.278 14.0832 16.2891 14.3824 15.2667C14.4042 15.1924 14.3651 15.073 14.3125 15.0086C14.1144 14.7658 13.8939 14.5418 13.6922 14.302C12.192 12.5184 11.0693 10.5237 10.4277 8.2788C10.1844 7.43355 10.0328 6.56254 9.8267 5.64447H9.82571ZM11.0312 6.54223C11.7659 6.31333 12.4566 6.06412 13.1656 5.88724C13.8759 5.70694 14.5967 5.57027 15.3238 5.47799C16.0604 5.39058 16.8016 5.3469 17.5434 5.34719C18.2578 5.34422 18.9723 5.41408 19.7368 5.45471C18.5067 4.84808 17.1715 4.48326 15.8039 4.38007C14.1792 4.25294 12.5471 4.50515 11.0366 5.11681C10.9959 5.14027 10.9615 5.17327 10.9364 5.21297C10.9113 5.25267 10.8962 5.29789 10.8924 5.34472C10.9251 5.74554 10.9831 6.14438 11.0321 6.54223H11.0312ZM4.39603 15.6848C4.45598 17.3461 5.02327 19.1297 5.92698 20.5829C6.58432 21.6454 7.42276 22.5844 8.40425 23.3575C8.4647 23.407 8.58906 23.4565 8.62869 23.4303C8.98294 23.1826 9.32233 22.9175 9.68946 22.6435C7.31227 20.7524 5.56332 18.4445 4.39603 15.6848ZM20.9046 23.845C22.2096 22.9937 23.3058 21.859 24.1116 20.5254C24.8501 19.3095 25.3374 17.9579 25.5445 16.5504C25.5618 16.4374 25.5861 16.326 25.434 16.265C25.0525 16.1129 24.676 15.9489 24.2786 15.7815C23.8307 18.7695 22.7115 21.4475 20.9046 23.845Z" fill="#31B5FF"/>
</svg>
