<svg width="18" height="18" viewBox="0 0 18 18" fill="none" xmlns="http://www.w3.org/2000/svg">
<path d="M9.88889 0H8.11111V8.88889H9.88889V0ZM14.1822 1.92889L12.92 3.19111C14.3244 4.32 15.2222 6.05333 15.2222 8C15.2222 11.44 12.44 14.2222 9 14.2222C5.56 14.2222 2.77778 11.44 2.77778 8C2.77778 6.05333 3.67556 4.32 5.07111 3.18222L3.81778 1.92889C2.09333 3.39556 1 5.56444 1 8C1 12.4178 4.58222 16 9 16C13.4178 16 17 12.4178 17 8C17 5.56444 15.9067 3.39556 14.1822 1.92889Z" fill="#F9F9F9"/>
</svg>
